<svg width="150" height="29" viewBox="0 0 150 29" fill="none" xmlns="http://www.w3.org/2000/svg">
<g clip-path="url(#clip0_172_280)">
<path d="M140.144 6.8388H146.859C148.386 6.8388 149.625 8.02189 149.625 9.49353V15.5532H139.597C138.674 15.5532 137.896 14.8318 137.896 13.9373V11.8308C137.896 10.994 138.588 10.3303 139.453 10.3303H145.015L144.438 11.5711H140.346C140.173 11.5711 139.971 11.7154 139.971 11.8886V13.5622C139.971 13.7642 140.173 13.8796 140.346 13.8796H147.464V9.89751C147.464 9.1184 146.772 8.54129 145.994 8.54129H139.337L140.144 6.8388ZM99.9713 4.93433V3.63582H97.8099V6.14627L99.9713 4.93433ZM97.7811 7.38706L99.9425 6.14627V15.5821H97.7811V7.38706ZM110.893 6.8388C112.421 6.8388 113.66 8.02189 113.66 9.49353V15.5532H111.499V9.89751C111.499 9.1184 110.807 8.54129 110.029 8.54129H104.813V15.5821H102.651V6.8388C105.389 6.8388 108.127 6.8388 110.893 6.8388ZM138.617 6.8388H133.17C131.643 6.8388 130.404 8.02189 130.404 9.49353V15.5532H132.565V9.89751C132.565 9.1184 133.257 8.54129 134.035 8.54129H137.781L138.617 6.8388ZM65.8503 15.5821H68.0117V9.52239C68.0117 8.05074 66.7725 6.86766 65.2451 6.86766H51.0376V15.5821H53.199V8.8587C53.199 8.65671 53.4007 8.54129 53.5736 8.54129H58.0405C58.2134 8.54129 58.4151 8.68557 58.4151 8.8587V15.5821H60.5765V8.8587C60.5765 8.65671 60.7782 8.54129 60.9511 8.54129H64.3517C65.1298 8.54129 65.8215 9.1184 65.8215 9.89751V15.5821H65.8503ZM83.9194 3.66467V15.5821H86.0808V3.66467H83.9194ZM92.9396 15.5821H95.101V9.52239C95.101 8.05074 93.8618 6.86766 92.3344 6.86766H87.7235L86.9166 8.57015H91.4699C92.248 8.57015 92.9396 9.14726 92.9396 9.92637V15.5821ZM127.32 3.66467V15.5821H117.522C116.6 15.5821 115.821 14.8607 115.821 13.9662V9.49353C115.821 8.02189 117.061 6.8388 118.588 6.8388H124.15L123.314 8.54129H119.424C118.646 8.54129 117.954 9.1184 117.954 9.89751V13.5622C117.954 13.7642 118.156 13.8796 118.329 13.8796H125.101V3.66467H127.32ZM72.1615 6.8388H78.8762C80.4036 6.8388 81.6428 8.02189 81.6428 9.49353V15.5532H71.614C70.6918 15.5532 69.9425 14.8318 69.9425 13.9373V11.8308C69.9425 10.994 70.6341 10.3303 71.4987 10.3303H77.0606L76.4843 11.5711H72.3921C72.2192 11.5711 72.0174 11.7154 72.0174 11.8886V13.5622C72.0174 13.7642 72.2192 13.8796 72.3921 13.8796H79.5102V9.89751C79.5102 9.1184 78.8186 8.54129 78.0405 8.54129H71.3834L72.1615 6.8388Z" fill="white"/>
<path d="M41.8733 1.18307C41.7868 1.26964 41.6716 1.38506 41.5851 1.47163L40.7206 2.19303L39.856 2.91442L38.9914 3.63581L38.1269 4.3572L37.2623 5.0786L36.3978 5.79999L35.5332 6.52138L34.6687 7.24278L33.8041 7.96417L32.9396 8.68556L32.075 9.40695L31.2105 10.1283L30.3459 10.8497L29.4814 11.5711L28.5303 12.408L27.6658 13.1293L26.8012 13.8507L25.9367 14.5721L25.0721 15.2935L24.2076 16.0149L23.343 16.7363C23.0837 16.9383 22.8531 17.1403 22.5938 17.3711C22.5938 19.0448 22.5938 20.6895 22.5938 22.3632C24.8992 24.4119 27.2047 26.4895 29.539 28.5672C30.7206 28.5672 31.9309 28.5672 33.1125 28.5672C33.9194 26.2587 34.6975 24.0368 35.3891 21.9592L35.4756 21.6706L35.5909 21.3821L35.6773 21.0935L35.7638 20.805L35.8502 20.5164L35.9367 20.2278L36.0231 19.9393L36.1096 19.6507L36.1961 19.3622L36.2825 19.0736L36.369 18.7851L36.4554 18.4965L36.5419 18.208L36.6283 17.9194L36.7148 17.6308L36.8012 17.3423L36.8877 17.0537L36.9742 16.7652L37.0606 16.4766L37.1471 16.188L37.2335 15.8995L37.32 15.6109L37.4064 15.3224L37.6082 14.6876L37.8099 14.0527L38.0116 13.4179L38.2133 12.7831L38.4151 12.1482L38.6168 11.5134L38.8185 10.8786L39.0203 10.2438L39.222 9.60894L39.4237 8.97412L39.6255 8.33929L39.8272 7.70447L40.0289 7.06964L40.2306 6.43482L40.4324 5.79999L40.6053 5.16516L40.7782 4.53034L40.9511 3.89551L41.124 3.26069L41.2969 2.62586L41.4698 1.99104C41.758 1.58706 41.8157 1.38506 41.8733 1.18307ZM41.0952 2.39502C41.0376 2.56815 41.0087 2.74128 40.9511 2.91442L40.7782 3.49153L40.6053 4.06865L40.4324 4.64576L40.2595 5.22288L40.0865 5.79999L39.9136 6.3771L39.7407 6.95422L39.5678 7.53133L39.3949 8.10845L39.222 8.68556L39.0491 9.26268L38.8762 9.83979L38.7033 10.4169L38.5303 10.994L38.3574 11.5711L38.1845 12.1482L38.0116 12.7254L37.8387 13.3025L37.6658 13.8796L37.4929 14.4567L37.32 15.0338L37.2335 15.3224L37.1471 15.6109L37.0606 15.8995L36.9742 16.188L36.8877 16.4766L36.8012 16.7652L36.7148 17.0537L36.6283 17.3423L36.5419 17.6308L36.4554 17.9194L36.369 18.208L36.2825 18.4965L36.1961 18.7851L36.1096 19.0736L36.0231 19.3622L35.9367 19.6507L35.8502 19.9393L35.7638 20.2278L35.6773 20.5164L35.5909 20.805L35.5044 21.0935L35.3891 21.3821L35.3027 21.6706L35.2162 21.9592L35.1298 22.2478L35.0433 22.5363L34.9569 22.8249L34.8704 23.1134L34.7839 23.402L34.6975 23.6905L34.611 23.9791L34.5246 24.2677L34.4381 24.5562L34.3517 24.8448L34.2652 25.1333L34.1788 25.4219L34.0923 25.7104L34.0059 25.999L33.9194 26.2876L33.8329 26.5761L33.7465 26.8647L33.66 27.1532L33.5736 27.4418L33.4871 27.7303L33.4007 28.0189L33.3718 28.0766H30.2306C27.4352 26.201 25.1874 24.2099 22.9684 22.2189V17.602C23.1989 17.4 23.4295 17.2269 23.66 17.0249L24.4669 16.3323L25.2739 15.6398L26.0808 14.9473L26.8877 14.2547L27.6946 13.5622L28.5015 12.8696L29.3084 12.1771L30.1154 11.4846L30.9223 10.792L31.7292 10.0995L32.5361 9.40695L33.343 8.71442L34.1499 8.02188L34.9569 7.32934L35.7638 6.63681L36.5707 5.94427L37.3776 5.25173L38.1845 4.55919L38.9914 3.86666L39.7984 3.17412L40.6053 2.48158C40.9223 2.53929 41.0087 2.48158 41.0952 2.39502Z" fill="white"/>
<path d="M0.634245 1.50049L0.807156 2.13531L0.980067 2.77014L1.15298 3.40497L1.32589 4.03979L1.4988 4.67462L1.72935 5.39601L1.93108 6.03084L2.1328 6.66566L2.30571 7.32934L2.50744 7.96417L2.70917 8.599L2.9109 9.23382L3.11263 9.86865L3.31436 10.5035L3.51609 11.1383L3.71782 11.7731L3.91955 12.408L4.12128 13.0428L4.32301 13.6776L4.52474 14.3124L4.72646 14.9473L4.81292 15.2647L4.89937 15.5821L4.98583 15.8995L5.07229 16.2169L5.15874 16.5343L5.2452 16.8517L5.33165 17.1691L5.41811 17.4577L5.50456 17.7751L5.59102 18.0925L5.67747 18.4099L5.76393 18.7274L5.85038 19.0159L5.93684 19.3045L6.02329 19.6219L6.10975 19.9104L6.22502 20.2279L6.31148 20.5164L6.42675 20.8338L6.51321 21.1224L6.62848 21.4109L6.74375 21.6995L6.85903 21.988C7.57949 24.0945 8.32877 26.3453 9.1645 28.6826C10.3749 28.6826 11.5853 28.6826 12.7956 28.6826C15.1587 26.5761 17.493 24.4696 19.8273 22.392C19.8273 20.6895 19.8273 19.0159 19.8273 17.3134C19.568 17.1114 19.3374 16.8806 19.078 16.6786L18.1847 15.9283L17.2913 15.1781L16.3979 14.4279L15.5046 13.6776L14.6112 12.9274L13.7178 12.1771L12.8244 11.4269L11.9311 10.6766L11.2971 10.0995L10.4037 9.34925L9.53914 8.599L8.67459 7.84875L7.78122 7.12735L6.91667 6.37711L6.05211 5.62686L5.18756 4.87661L4.32301 4.12636L3.45845 3.37611L2.5939 2.62586L1.72935 1.87561L0.864793 1.12536C0.778337 1.0388 0.663064 0.923374 0.576608 0.836807C0.518971 1.09651 0.576608 1.2985 0.634245 1.50049ZM1.4988 2.36616L2.33453 3.0587L3.17027 3.75124L4.006 4.44377L4.84174 5.13631L5.67747 5.82885L6.51321 6.52138L7.34894 7.21392L8.18468 7.90646L9.02041 8.599L9.85615 9.29153L10.6919 9.98407L11.5276 10.6766L12.3634 11.3691L13.1991 12.0617L14.0348 12.7542L14.8706 13.4468L15.7063 14.1393L16.542 14.8318L17.3778 15.5244L18.2135 16.2169L19.0492 16.9094C19.2798 17.1114 19.5103 17.3134 19.7409 17.5154V22.2189C17.493 24.2388 15.2452 26.2587 12.9685 28.2786H9.79851H9.59678L9.51033 27.99L9.42387 27.7015L9.33742 27.4129L9.25096 27.1244L9.1645 26.8358L9.07805 26.5473L8.99159 26.2587L8.90514 25.9701L8.81868 25.6816L8.73223 25.393L8.64577 25.1045L8.55932 24.8159L8.47286 24.5274L8.38641 24.2388L8.29995 23.9502L8.2135 23.6617L8.12704 23.3731L8.04058 23.0846L7.95413 22.796L7.86767 22.5075L7.49303 22.2189L7.40658 21.9303L7.29131 21.6418L7.17603 21.3532L7.06076 21.0647L6.9743 20.7761L6.85903 20.4876L6.77257 20.1701L6.68612 19.8816L6.59966 19.593L6.51321 19.2756L6.42675 18.9871L6.3403 18.6696L6.25384 18.3811L6.16739 18.0637L6.08093 17.7463L5.99448 17.4288L5.90802 17.1114L5.82157 16.794L5.73511 16.4766L5.64865 16.188L5.38929 15.8706L5.30283 15.5532L5.21638 15.2358L5.12992 14.9184L4.95701 14.3413L4.7841 13.7642L4.61119 13.1871L4.43828 12.6099L4.26537 12.0328L4.09246 11.4557L3.91955 10.8786L3.74664 10.3015L3.57373 9.72437L3.40082 9.14725L3.22791 8.57014L3.05499 7.99303L2.88208 7.41591L2.70917 6.8388L2.53626 6.26168L2.36335 5.68457L2.19044 5.10745L2.01753 4.53034L1.84462 3.95322L1.67171 3.37611L1.4988 2.799C1.35471 2.51044 1.29707 2.3373 1.23943 2.13531C1.32589 2.22188 1.41234 2.27959 1.4988 2.36616ZM42.0752 0.865663C41.9887 0.95223 41.8734 1.06765 41.787 1.15422L40.9224 1.90447L40.0579 2.65472L39.1933 3.40497L38.3288 4.15522L37.4642 4.90546L36.5997 5.65571L35.7351 6.40596L34.8706 7.15621L34.006 7.90646L33.1414 8.65671L32.2481 9.40696L31.3835 10.1572L30.4902 10.9075L29.5968 11.6577L28.7034 12.408L27.81 13.1582L26.9167 13.9084L26.0233 14.6587L25.0723 15.2358L24.2077 15.9572L23.3144 16.7075C23.055 16.9094 22.8244 17.1403 22.5651 17.3423C22.5651 19.0159 22.5651 20.7184 22.5651 22.4209C24.8994 24.4985 27.2337 26.605 29.5968 28.7114C30.8072 28.7114 32.0175 28.7114 33.2279 28.7114C34.0636 26.3453 34.8129 24.1234 35.5334 22.0169L35.6487 21.7283L35.7639 21.4398L35.8792 21.1512L35.9657 20.8627L36.0233 20.4876L36.1097 20.199L36.225 19.8816L36.3115 19.593L36.3979 19.3045L36.4844 18.9871L36.5708 18.6985L36.6573 18.3811L36.7438 18.0925L36.8302 17.7751L36.9167 17.4577L37.0031 17.1691L37.0896 16.8517L37.176 16.5343L37.2625 16.2169L37.3489 15.8995L37.4354 15.5821L37.5219 15.2647L37.6083 14.9473L37.81 14.3124L38.0118 13.6776L38.2135 13.0428L38.4152 12.408L38.617 11.7731L38.8187 11.1383L39.0204 10.5035L39.2221 9.86865L39.4239 9.23382L39.6256 8.599L39.8273 7.96417L40.0291 7.32934L40.2308 6.69452L40.4325 6.05969L40.6342 5.42487L40.836 4.79004L41.0377 4.15522L41.2106 3.52039L41.3835 2.88556L41.5564 2.25074L41.7293 1.61591C41.9599 1.24079 42.0175 1.0388 42.0752 0.865663ZM41.2682 2.10646C41.2106 2.27959 41.153 2.48158 41.1242 2.65472L40.9512 3.23183L40.7783 3.80895L40.6054 4.38606L40.4325 4.96318L40.2596 5.54029L40.0867 6.1174L39.9138 6.69452L39.7409 7.27163L39.568 7.84875L39.395 8.42586L39.2221 9.00298L39.0492 9.58009L38.8763 10.1572L38.7034 10.7343L38.5305 11.3114L38.3576 11.8885L38.1847 12.4657L38.0118 13.0428L37.8389 13.6199L37.6659 14.197L37.493 14.7741L37.4066 15.0915L37.3201 15.4089L37.2337 15.7264L37.1472 16.0438L37.0608 16.3612L36.9743 16.6786L36.8878 16.996L36.8014 17.3134L36.7149 17.6308L36.6285 17.9482L36.542 18.2657L36.4556 18.5542L36.3691 18.8716L36.2827 19.1602L36.1962 19.4776L36.1097 19.7662L36.0233 20.0547L35.9368 20.3721L35.8216 20.6607L35.7351 20.9492L35.6198 21.2378L35.5046 21.5264L35.3893 21.8149L35.3028 22.1035L35.2164 22.392L35.1299 22.6806L35.0435 22.9691L34.957 23.2577L34.8706 23.5463L34.7841 23.8348L34.6976 24.1234L34.6112 24.4119L34.5247 24.7005L34.4383 24.989L34.3518 25.2776L34.2654 25.5662L34.1789 25.8547L34.0925 26.1433L34.006 26.4318L33.9195 26.7204L33.8331 27.0089L33.7466 27.2975L33.6602 27.5861L33.5737 27.8746L33.4873 28.1632L33.4585 28.2209H30.2884C28.0118 26.201 25.7639 24.1811 23.5161 22.1612V17.4577C23.7466 17.2557 23.9772 17.0537 24.2077 16.8517L25.0435 16.1592L25.8792 15.4667L26.7149 14.7741L27.5507 14.0816L28.3864 13.389L29.2221 12.6965L30.0579 12.004L30.8936 11.3114L31.1242 10.6766L31.9599 9.98407L32.7956 9.29153L33.6314 8.599L34.4671 7.90646L35.3028 7.21392L36.1386 6.52138L36.9743 5.82885L37.81 5.13631L38.6458 4.44377L39.4815 3.75124L40.3172 3.0587L41.153 2.36616C41.0953 2.25074 41.1818 2.16417 41.2682 2.10646Z" stroke="white" stroke-width="1.667" stroke-miterlimit="10" stroke-linecap="square"/>
<path d="M149.597 21.209H148.646L147.378 24.2965C147.234 24.6139 147.118 24.9602 146.974 25.3065C146.917 25.1333 146.859 24.9891 146.772 24.8159L146.571 24.3254L145.303 21.2378H144.381V25.999H144.928V22.1612C144.928 21.9881 144.928 21.8149 144.928 21.6418C144.986 21.7861 145.043 21.9303 145.101 22.0746L146.715 25.9701H147.262L148.876 22.0169C148.934 21.8438 148.963 21.8149 148.991 21.7572C149.02 21.6995 149.02 21.6418 149.049 21.5841C149.049 21.7861 149.049 21.9592 149.049 22.1612V25.999H149.597V21.209ZM139.193 24.5562H137.089L138.127 21.6418L139.193 24.5562ZM139.366 24.9891L139.741 25.999H140.317L138.53 21.2378H137.752L136.023 25.999H136.6L136.974 24.9891H139.366ZM129.625 21.6706H132.162V21.209H129.107V25.9701H132.162V25.5085H129.625V23.7194H132.046V23.2577H129.625V21.6706ZM123.487 21.6995H125.043V21.209H121.412V21.6995H122.968V25.9701H123.516V21.6995H123.487ZM111.47 21.6706H114.006V21.209H110.951V25.9701H114.006V25.5085H111.47V23.7194H113.891V23.2577H111.47V21.6706ZM102.19 24.5562H100.087L101.153 21.6418L102.19 24.5562ZM102.363 24.9891L102.738 25.999H103.314L101.527 21.2378H100.778L99.0203 25.999H99.5967L99.9713 24.9891H102.363ZM92.9108 21.209H92.3632V25.9701H95.3604V25.4796H92.9108V21.209ZM87.3777 21.209V24.5562C87.3777 25.4796 87.2336 25.5662 85.9655 25.5662C85.1874 25.5662 84.9281 25.5085 84.784 25.2488C84.7264 25.1333 84.6975 24.9313 84.6975 24.5562V21.209H84.15V24.5562C84.15 25.393 84.3229 25.7104 84.8704 25.9124C85.101 25.999 85.3892 26.0279 86.0232 26.0279C87.0606 26.0279 87.4353 25.9413 87.6946 25.595C87.8676 25.3642 87.9252 25.1045 87.9252 24.5562V21.209H87.3777ZM79.6831 21.209H78.7321L77.4641 24.2965C77.32 24.6139 77.2047 24.9602 77.0606 25.3065C77.003 25.1333 76.9454 24.9891 76.8589 24.8159L76.6572 24.3254L75.3892 21.2378H74.467V25.999H75.0145V22.1612C75.0145 21.9881 75.0145 21.8149 75.0145 21.6418C75.0722 21.7861 75.1298 21.9303 75.1874 22.0746L76.8013 25.9701H77.3488L78.9627 22.0169C79.0203 21.8438 79.0491 21.8149 79.0779 21.7572C79.1068 21.6995 79.1068 21.6418 79.1356 21.5841C79.1356 21.7861 79.1356 21.9592 79.1356 22.1612V25.999H79.6831V21.209ZM66.9742 23.604V21.6706H68.7033C69.0779 21.6706 69.3085 21.7572 69.4238 21.9015C69.5102 22.0458 69.539 22.2478 69.539 22.7383C69.539 23.3731 69.2797 23.604 68.5016 23.604H66.9742ZM66.4266 25.999H66.9742V24.0657H68.588C68.9627 24.0657 69.1068 24.0945 69.2508 24.21C69.4238 24.3542 69.4814 24.5274 69.4814 24.8736V25.9701H70.0289V24.7582C70.0289 24.1811 69.7696 23.8637 69.2797 23.8348C69.9137 23.7194 70.1154 23.4308 70.1154 22.5652C70.1154 21.5552 69.7408 21.1801 68.7321 21.1801H66.4555V25.999H66.4266ZM60.0578 21.6129C61.0376 21.6129 61.2393 21.6706 61.4122 22.0169C61.5275 22.3055 61.5275 22.3055 61.5275 24.1811C61.5275 24.8159 61.4699 25.1045 61.297 25.3065C61.124 25.4796 60.8935 25.5373 60.0289 25.5373C59.0491 25.5373 58.8474 25.4796 58.6745 25.1333C58.5592 24.8448 58.5592 24.8448 58.5592 22.9692C58.5592 22.3343 58.6168 22.0458 58.7898 21.8438C58.9627 21.6706 59.1932 21.6129 60.0578 21.6129ZM60.0289 21.1512C59.6255 21.1512 59.2508 21.1801 59.0779 21.209C58.6745 21.2955 58.3863 21.4687 58.2422 21.7572C58.0405 22.1323 58.0117 22.392 58.0117 23.402C58.0117 24.4985 58.0117 24.6716 58.0981 25.0468C58.1846 25.4796 58.3863 25.7393 58.7321 25.8836C59.0491 25.999 59.2797 26.0279 60.1154 26.0279C60.807 26.0279 61.0664 25.999 61.3546 25.8836C61.7004 25.7393 61.9021 25.4796 61.9886 25.0468C62.0751 24.6716 62.0751 24.5274 62.0751 23.402C62.0751 22.796 62.0751 22.6806 62.0462 22.4498C61.9598 21.8438 61.7581 21.4687 61.3258 21.3244C61.0664 21.209 60.7782 21.1512 60.0289 21.1512ZM51.5851 21.6706H53.9771V21.209H51.0664V25.9701H51.614V23.7771H53.9483V23.3154H51.5851V21.6706Z" fill="white"/>
</g>
<defs>
<clipPath id="clip0_172_280">
<rect width="150" height="29" fill="white"/>
</clipPath>
</defs>
</svg>
